<svg xmlns="http://www.w3.org/2000/svg" width="200" height="60" viewBox="0 0 200 60">
  <defs>
    <linearGradient id="logoGradient" x1="0%" y1="0%" x2="100%" y2="100%">
      <stop offset="0%" stop-color="#0d6efd" />
      <stop offset="100%" stop-color="#0b5ed7" />
    </linearGradient>
  </defs>
  
  <!-- Main Circle -->
  <circle cx="30" cy="30" r="25" fill="url(#logoGradient)" />
  
  <!-- People Icon -->
  <path d="M30 15 C26 15 23 18 23 22 C23 26 26 29 30 29 C34 29 37 26 37 22 C37 18 34 15 30 15 Z M30 31 C24 31 18 34 18 39 L18 40 L42 40 L42 39 C42 34 36 31 30 31 Z" fill="white" />
  
  <!-- Small Person Icon -->
  <path d="M42 15 C40 15 39 16 39 18 C39 20 40 21 42 21 C44 21 45 20 45 18 C45 16 44 15 42 15 Z M42 23 C39 23 36 25 36 28 L36 29 L48 29 L48 28 C48 25 45 23 42 23 Z" fill="white" />
  
  <!-- Text -->
  <text x="65" y="28" font-family="Arial, sans-serif" font-size="18" font-weight="bold" fill="#0d6efd">Helping Hands</text>
  <text x="65" y="45" font-family="Arial, sans-serif" font-size="12" fill="#6c757d">Charity Foundation</text>
</svg>